<svg width="84" height="30" viewBox="0 0 84 30" fill="none" xmlns="http://www.w3.org/2000/svg">
<path d="M77.8514 11.5081H74.8991C74.7528 11.5081 74.6797 11.4425 74.6797 11.3114V10.1967C74.6797 10.0656 74.7528 10 74.8991 10H81.9008C82.6854 10 83.0777 10.3115 83.0777 10.9344V11.2786C83.0777 11.3332 83.0511 11.3879 82.9979 11.4425C82.958 11.4862 82.8915 11.5081 82.7984 11.5081H79.8262V18.9338C79.8262 19.054 79.7597 19.1141 79.6267 19.1141H78.0907C77.9312 19.1141 77.8514 19.054 77.8514 18.9338V11.5081Z" fill="black"/>
<path d="M70.451 17.6224H73.4032C74.1745 17.6224 74.5602 17.9284 74.5602 18.5404V18.8846C74.5602 19.0376 74.4738 19.1141 74.3009 19.1141H68.7155C68.5692 19.1141 68.4961 19.054 68.4961 18.9338V10.1967C68.4961 10.0656 68.5692 10 68.7155 10H68.895C69.4004 10 69.786 10.1147 70.052 10.3442C70.318 10.5628 70.451 10.9289 70.451 11.4425V17.6224Z" fill="black"/>
<path d="M61.6643 19.2781C60.7999 19.2781 60.0951 19.1633 59.5499 18.9338C59.0046 18.7043 58.5857 18.4093 58.2932 18.0486C58.0006 17.688 57.8011 17.3055 57.6947 16.9012C57.5884 16.4968 57.5352 16.1253 57.5352 15.7865V10.1967C57.5352 10.0656 57.6083 10 57.7546 10H57.9142C58.4461 10 58.8384 10.1093 59.0911 10.3278C59.357 10.5464 59.49 10.9125 59.49 11.4261V15.475C59.49 16.1526 59.6496 16.7045 59.9688 17.1307C60.2879 17.5569 60.8531 17.77 61.6643 17.77C62.4888 17.77 63.0673 17.5569 63.3998 17.1307C63.7323 16.6935 63.8985 16.1417 63.8985 15.475V10.1967C63.8985 10.0656 63.9783 10 64.1379 10H64.2974C64.8161 10 65.2084 10.1093 65.4744 10.3278C65.7403 10.5464 65.8733 10.9125 65.8733 11.4261V15.7701C65.8733 16.087 65.8201 16.4476 65.7137 16.852C65.6073 17.2454 65.4079 17.6279 65.1153 17.9995C64.8227 18.371 64.3972 18.677 63.8386 18.9174C63.2934 19.1578 62.5686 19.2781 61.6643 19.2781Z" fill="black"/>
<path d="M48.7311 16.8192L47.8335 18.901C47.7803 19.0431 47.6805 19.1141 47.5342 19.1141H45.9983C45.9318 19.1141 45.8852 19.0977 45.8586 19.065C45.832 19.0212 45.8254 18.9775 45.8387 18.9338L49.7085 10.1639C49.7484 10.0546 49.8282 10 49.9479 10H50.6062C51.0849 10 51.4573 10.082 51.7233 10.2459C51.9892 10.4098 52.2286 10.7322 52.4414 11.213L55.8524 18.9338C55.879 18.9775 55.879 19.0212 55.8524 19.065C55.8258 19.0977 55.7793 19.1141 55.7128 19.1141H54.1369C53.9375 19.1141 53.8111 19.0431 53.7579 18.901L52.8603 16.8192H48.7311ZM49.3295 15.4586H52.3017L50.8057 11.9343L49.3295 15.4586Z" fill="black"/>
<path d="M40.8573 17.2126L43.5502 10.2295C43.6167 10.0765 43.743 10 43.9292 10H45.3655C45.5117 10 45.5649 10.0656 45.525 10.1967L41.9544 18.9338C41.9012 19.054 41.8148 19.1141 41.6951 19.1141H39.8798C39.7203 19.1141 39.6205 19.054 39.5806 18.9338L36.01 10.2131C35.9967 10.1585 35.9967 10.1093 36.01 10.0656C36.0366 10.0219 36.0831 10 36.1496 10H36.8079C37.26 10 37.6124 10.082 37.8651 10.2459C38.1311 10.3989 38.3572 10.7213 38.5433 11.213L40.8573 17.2126Z" fill="black"/>
<path fill-rule="evenodd" clip-rule="evenodd" d="M16.1978 29.1445L9.37721 18.2207L20.7534 0H34.3945L16.1978 29.1445ZM16.3682 7.02357L8.25561 0L0.00121689 7.02357H16.3682Z" fill="#0C0A93"/>
</svg>
